<svg xmlns="http://www.w3.org/2000/svg" width="16" height="10" fill="none" viewBox="0 0 16 10"><path fill="#0CE9D3" d="M1.5 3C2.32843 3 3 2.32843 3 1.5C3 0.671573 2.32843 0 1.5 0C0.671573 0 0 0.671573 0 1.5C0 2.32843 0.671573 3 1.5 3Z"/><path fill="#0CE9D3" d="M5.5 9C6.32843 9 7 8.32843 7 7.5C7 6.67157 6.32843 6 5.5 6C4.67157 6 4 6.67157 4 7.5C4 8.32843 4.67157 9 5.5 9Z"/><rect width="11" height="2" x="5" y="1" fill="#0CE9D3" rx="1"/><rect width="6" height="2.5" x="10" y="7" fill="#0CE9D3" rx="1.25"/></svg>