<svg xmlns="http://www.w3.org/2000/svg" xmlns:xlink="http://www.w3.org/1999/xlink" id="svg_resize" width="{{w}}" height="{{h}}" x="0" style="enable-background:new 0 0 44 44" y="0" version="1.1" viewBox="0 0 44 44" xml:space="preserve"><style type="text/css">.st0{fill-rule:evenodd;clip-rule:evenodd;fill:#{{c}}}</style><switch><g><path d="M32.6,19.5c1.4,1.4,1.4,3.7,0,5L17.2,39.8l2.2,2.2c1.4,1.4,3.7,1.4,5,0L42,24.5c1.4-1.4,1.4-3.7,0-5L24.5,2 c-1.4-1.4-3.7-1.4-5,0l-2.2,2.2L32.6,19.5z" class="st0"/><path d="M13,9L1.7,20.4c-0.9,0.9-0.9,2.4,0,3.3L13,35c0.9,0.9,2.4,0.9,3.3,0l11.3-11.3c0.9-0.9,0.9-2.4,0-3.3L16.3,9 C15.4,8.1,13.9,8.1,13,9z" class="st0"/></g></switch></svg>